<svg xmlns="http://www.w3.org/2000/svg" width="36" height="36" viewBox="0 0 36 36">
  <g id="Grupo_164" data-name="Grupo 164" transform="translate(-337.385 -6432.124)">
    <circle id="Elipse_313" data-name="Elipse 313" cx="18" cy="18" r="18" transform="translate(337.385 6432.124)" fill="#a66d58"/>
    <g id="Grupo_163" data-name="Grupo 163">
      <path id="Trazado_5154" data-name="Trazado 5154" d="M342.973,6445.8a13.141,13.141,0,0,0,0,8.649.937.937,0,0,0,.041.118,13.144,13.144,0,0,0,24.742,0,.807.807,0,0,0,.042-.118,13.141,13.141,0,0,0,0-8.649.97.97,0,0,0-.042-.118,13.144,13.144,0,0,0-24.742,0,.965.965,0,0,0-.041.118Zm12.412-6.936c.5,0,1.308.906,1.983,2.93a20.74,20.74,0,0,1,.775,3.321h-5.516a20.519,20.519,0,0,1,.776-3.321c.675-2.024,1.482-2.93,1.982-2.93Zm2.987,8.135c.091,1,.139,2.053.139,3.126s-.048,2.12-.139,3.125H352.4c-.09-1-.138-2.052-.138-3.125s.048-2.121.138-3.126Zm8.273,3.126a11.233,11.233,0,0,1-.441,3.125h-5.942c.088-1.026.133-2.076.133-3.125s-.045-2.1-.133-3.126H366.2a11.24,11.24,0,0,1,.441,3.126Zm-11.26,11.26c-.5,0-1.307-.906-1.982-2.93a20.513,20.513,0,0,1-.776-3.321h5.516a20.6,20.6,0,0,1-.775,3.321c-.675,2.024-1.482,2.93-1.983,2.93Zm-4.877-8.135h-5.941a11.272,11.272,0,0,1,0-6.251h5.941c-.088,1.026-.132,2.076-.132,3.126s.044,2.1.132,3.125Zm-5.2,1.884h5.421a18.108,18.108,0,0,0,1.717,5.86,11.31,11.31,0,0,1-7.138-5.86Zm13.026,5.86a18.084,18.084,0,0,0,1.717-5.86h5.422a11.315,11.315,0,0,1-7.139,5.86Zm7.139-15.879h-5.422a18.085,18.085,0,0,0-1.717-5.86,11.319,11.319,0,0,1,7.139,5.86Zm-13.027-5.86a18.109,18.109,0,0,0-1.717,5.86H345.3a11.314,11.314,0,0,1,7.138-5.86Zm0,0" fill="#fff"/>
    </g>
  </g>
</svg>
